# xmcd
#
# Track frame offsets:
#   150
#   12994
#   23291
#   37380
#   48957
#   57616
#   71487
#   82389
#   101461
#   114961
#   131221
#   138315
#   152907
#   164829
#   181839
#   196687
#   211047
#   225969
#   241794
#   260601
#   278702
#
# Disc length: 3764 seconds
#
# Revision: 0
# Processed by: cddbd v1.5.2PL0 Copyright (c) Steve Scherf et al.
# Submitted via: GXTranscoder 2.0.1939
#
DISCID=210eb215
DTITLE=thtdf - tzzt
DYEAR=2006
DGENRE=Children's Music
TTITLE0=cvb
TTITLE1=fsg
TTITLE2=gd
TTITLE3=fgdgf
TTITLE4=fdgd
TTITLE5=fdfg
TTITLE6=dfg
TTITLE7=dfgjk
TTITLE8=fdg
TTITLE9=sdfhgj
TTITLE10=sdf
TTITLE11=rtt
TTITLE12=lz
TTITLE13=nm 
TTITLE14=trz
TTITLE15=fdnjzhuj
TTITLE16=ezu4
TTITLE17=klzu
TTITLE18=rtuzoi6
TTITLE19=4567
TTITLE20=7u
EXTD=
EXTT0=
EXTT1=
EXTT2=
EXTT3=
EXTT4=
EXTT5=
EXTT6=
EXTT7=
EXTT8=
EXTT9=
EXTT10=
EXTT11=
EXTT12=
EXTT13=
EXTT14=
EXTT15=
EXTT16=
EXTT17=
EXTT18=
EXTT19=
EXTT20=
PLAYORDER=
